<svg width="223" height="218" viewBox="0 0 223 218" fill="" xmlns="http://www.w3.org/2000/svg">
<path d="M96.4589 7.45694L95.4751 1.72335L96.2777 1.5905L97.5285 8.88046L96.7596 9.00772L96.4589 7.45694ZM96.36 5.78959L96.7522 5.93255C96.7992 6.36822 96.7809 6.78698 96.6972 7.18884C96.6136 7.5907 96.4705 7.9562 96.2681 8.28534C96.0611 8.61523 95.8007 8.8893 95.4867 9.10757C95.1683 9.32657 94.8 9.47069 94.3818 9.5399C94.0176 9.60018 93.6832 9.60473 93.3785 9.55355C93.0738 9.50237 92.8018 9.38572 92.5624 9.20361C92.3231 9.0215 92.1229 8.77057 91.9617 8.45081C91.7959 8.1318 91.6715 7.72975 91.5882 7.24465L90.7744 2.50146L91.5837 2.36749L92.3987 7.11742C92.485 7.62048 92.6221 8.00197 92.8101 8.26187C92.9988 8.52627 93.2317 8.69789 93.5088 8.77674C93.7858 8.85559 94.0997 8.86599 94.4504 8.80794C94.8371 8.74394 95.1619 8.60241 95.4249 8.38335C95.6841 8.16952 95.8895 7.91149 96.0411 7.60924C96.189 7.31223 96.2884 7.00245 96.3394 6.6799C96.3912 6.36184 96.3981 6.06507 96.36 5.78959Z" fill="#2E3759"/>
<path d="M80.1907 6.90627L81.7825 12.3665L80.9928 12.5886L78.9227 5.48769L79.6795 5.27484L80.1907 6.90627ZM80.4285 8.25954L80.0244 8.38742C79.8943 7.94115 79.827 7.51508 79.8226 7.1092C79.8182 6.70333 79.8871 6.32892 80.0292 5.98598C80.1713 5.64304 80.3977 5.34503 80.7084 5.09196C81.0191 4.83888 81.4245 4.64201 81.9247 4.50135C82.2712 4.40387 82.6033 4.36254 82.9209 4.37736C83.2354 4.39778 83.527 4.48619 83.7957 4.64258C84.0644 4.79897 84.3055 5.03175 84.5191 5.34094C84.7283 5.65135 84.9036 6.04938 85.0452 6.53502L86.3692 11.0764L85.5861 11.2967L84.2583 6.74215C84.1473 6.36151 84.0132 6.05603 83.8558 5.82572C83.6941 5.59663 83.5164 5.4265 83.3226 5.31533C83.1244 5.20538 82.917 5.14536 82.7004 5.13526C82.4839 5.12515 82.2616 5.15218 82.0334 5.21635C81.4543 5.37922 81.0306 5.61911 80.7622 5.93602C80.4895 6.25416 80.3358 6.61455 80.3013 7.01717C80.2637 7.4254 80.3061 7.83953 80.4285 8.25954Z" fill="#2E3759"/>
<path d="M72.8281 15.5616L72.5771 14.9405L76.029 13.5945L76.2801 14.2156L72.8281 15.5616ZM75.7247 16.4717L74.9668 16.7672L72.1569 9.81458C72.0288 9.49768 71.8899 9.27551 71.74 9.14806C71.5902 9.02061 71.4363 8.95591 71.2782 8.95396C71.1202 8.95201 70.9626 8.98167 70.8055 9.04292C70.6908 9.08762 70.583 9.13701 70.482 9.19107C70.3826 9.24936 70.2939 9.30351 70.2159 9.35352L69.9253 8.72582C70.0068 8.65982 70.1184 8.58939 70.2602 8.51455C70.4002 8.43548 70.5446 8.36697 70.6932 8.30902C70.9861 8.19479 71.2665 8.14662 71.5342 8.1645C71.8036 8.18661 72.055 8.30382 72.2882 8.51612C72.5232 8.73264 72.7329 9.06907 72.9173 9.52539L75.7247 16.4717Z" fill="#2E3759"/>
<path d="M66.0991 17.2481L63.2968 11.748L64.0269 11.3891L67.3846 17.9796L66.673 18.3293L66.0991 17.2481ZM64.3297 19.5421L64.0068 18.863C64.0948 18.835 64.1797 18.8059 64.2615 18.7759C64.3434 18.7458 64.4293 18.7086 64.5193 18.6644C64.8383 18.5076 65.0885 18.311 65.2698 18.0746C65.449 17.8443 65.5677 17.5854 65.6258 17.2979C65.686 17.0145 65.6887 16.7136 65.6339 16.3953C65.5811 16.081 65.4813 15.7645 65.3342 15.4458L65.5514 15.2096C65.7707 15.64 65.9295 16.0621 66.0278 16.4758C66.1261 16.8896 66.1535 17.2797 66.1102 17.6463C66.0648 18.019 65.9403 18.3518 65.7367 18.6448C65.5311 18.9439 65.2361 19.188 64.8516 19.3769C64.7575 19.4232 64.6614 19.4603 64.5631 19.4883C64.4629 19.5223 64.3851 19.5403 64.3297 19.5421Z" fill="#2E3759"/>
<path d="M58.8719 22.5601L54.9821 16.269L55.6807 15.8523L59.5705 22.1433L58.8719 22.5601ZM60.819 23.8897C60.9005 24.0215 60.9277 24.1565 60.9007 24.2946C60.8721 24.439 60.7834 24.5556 60.6347 24.6443C60.486 24.733 60.3398 24.7565 60.1962 24.7149C60.051 24.6794 59.9377 24.5958 59.8562 24.464C59.7771 24.3361 59.7538 24.1988 59.7863 24.052C59.8173 23.9115 59.9072 23.7969 60.0559 23.7082C60.2046 23.6195 60.3496 23.594 60.4908 23.6318C60.6305 23.6758 60.7399 23.7618 60.819 23.8897Z" fill="#2E3759"/>
<path d="M46.7578 22.4359C46.4783 22.6405 46.2558 22.8824 46.0902 23.1617C45.9237 23.4474 45.8386 23.7497 45.8347 24.0688C45.8299 24.3942 45.9295 24.7138 46.1333 25.0276L45.5045 25.488C45.2391 25.1006 45.1015 24.6818 45.0917 24.2316C45.0809 23.7877 45.1831 23.3571 45.3984 22.9397C45.6127 22.5287 45.924 22.1738 46.3322 21.875C46.7477 21.5708 47.1719 21.376 47.6048 21.2907C48.034 21.208 48.4557 21.2211 48.8701 21.33C49.2873 21.4425 49.686 21.6363 50.0662 21.9113C50.4456 22.1927 50.7923 22.5403 51.1064 22.9541L51.2799 23.1829C51.5939 23.5967 51.8326 24.0206 51.996 24.4544C52.1584 24.8946 52.2335 25.3253 52.2213 25.7464C52.2119 26.1712 52.1055 26.5738 51.9022 26.9542C51.6989 27.3345 51.3895 27.6768 50.974 27.981C50.5474 28.2932 50.1002 28.4879 49.6324 28.5649C49.161 28.6446 48.7057 28.6024 48.2665 28.4383C47.8237 28.2768 47.4305 27.9886 47.0871 27.5737L47.7159 27.1133C47.9739 27.4157 48.2651 27.6261 48.5894 27.7444C48.9138 27.8628 49.2459 27.8935 49.586 27.8366C49.926 27.7797 50.2468 27.6408 50.5483 27.4201C50.8867 27.1724 51.1257 26.8957 51.2656 26.5901C51.4082 26.288 51.4695 25.9693 51.4494 25.6338C51.4285 25.3047 51.3441 24.9711 51.1964 24.6332C51.0514 24.2989 50.8604 23.9756 50.6235 23.6634L50.45 23.4347C50.2103 23.1188 49.9486 22.8417 49.6647 22.6034C49.38 22.3713 49.0801 22.1984 48.7649 22.0847C48.4461 21.9736 48.1176 21.9402 47.7794 21.9844C47.4403 22.035 47.0998 22.1855 46.7578 22.4359Z" fill="#2E3759"/>
<path d="M36.8609 29.7204C37.2165 29.3935 37.6049 29.1571 38.0261 29.0112C38.4439 28.8684 38.8752 28.8123 39.3198 28.843C39.7611 28.8767 40.1946 28.9981 40.6204 29.207C41.0459 29.4224 41.4411 29.7214 41.8058 30.104L42.0086 30.3168C42.4016 30.7292 42.6948 31.1591 42.8883 31.6064C43.0817 32.0537 43.1826 32.4964 43.1909 32.9344C43.1992 33.3724 43.1239 33.7821 42.9649 34.1635C42.8057 34.5513 42.5718 34.8871 42.2632 35.1708C41.9177 35.4886 41.5525 35.7098 41.1678 35.8345C40.7863 35.9625 40.3996 35.9992 40.0078 35.9448C39.6157 35.8967 39.2297 35.7657 38.8497 35.5519C38.4728 35.3414 38.1129 35.0563 37.7702 34.6967L37.426 34.3355L41.5472 30.546L42.0283 31.0508L38.5058 34.2896L38.5718 34.3589C38.8647 34.6529 39.194 34.8763 39.5598 35.0289C39.9254 35.188 40.3008 35.2451 40.6862 35.2003C41.0715 35.1555 41.4353 34.9758 41.7774 34.6612C42.0324 34.4267 42.2169 34.158 42.331 33.855C42.4417 33.5551 42.4799 33.2353 42.4456 32.8954C42.4111 32.562 42.3068 32.2215 42.1329 31.8738C41.9587 31.5326 41.716 31.1987 41.4047 30.8721L41.2019 30.6593C40.919 30.3624 40.6112 30.1253 40.2788 29.9482C39.9461 29.7775 39.6048 29.6704 39.2549 29.6269C38.9017 29.5865 38.5591 29.6167 38.2273 29.7176C37.8954 29.8185 37.5919 29.9954 37.3168 30.2483C36.9948 30.5444 36.7646 30.8644 36.6264 31.2081C36.4914 31.5551 36.4459 31.9466 36.4901 32.3826L35.8391 32.4426C35.7931 32.1631 35.7897 31.8691 35.8292 31.5604C35.8653 31.2549 35.9649 30.9466 36.1281 30.6357C36.2912 30.3247 36.5355 30.0196 36.8609 29.7204Z" fill="#2E3759"/>
<path d="M34.3428 40.7488L29.8845 37.0118L30.418 36.3977L36.0865 41.1491L35.5754 41.7374L34.3428 40.7488ZM33.1908 39.5424L33.5856 39.4006C33.9029 39.7023 34.159 40.0329 34.3537 40.3923C34.5485 40.7517 34.6739 41.1215 34.7301 41.5015C34.7832 41.8849 34.7591 42.2601 34.6577 42.6269C34.5533 42.9972 34.3621 43.3423 34.0841 43.6623C33.842 43.9409 33.5869 44.1581 33.3187 44.3139C33.0506 44.4697 32.7655 44.5547 32.4633 44.569C32.1612 44.5833 31.8447 44.5202 31.5141 44.3798C31.1804 44.2428 30.8249 44.0162 30.4477 43.7L26.7595 40.6085L27.2975 39.9893L30.991 43.0851C31.3822 43.413 31.7341 43.6159 32.0468 43.6937C32.363 43.7744 32.6534 43.7562 32.9181 43.6392C33.1827 43.5221 33.4316 43.3294 33.6648 43.0611C33.9218 42.7652 34.0811 42.4499 34.1427 42.115C34.2048 41.7865 34.1968 41.4588 34.1187 41.1317C34.0412 40.8111 33.918 40.5117 33.7493 40.2335C33.584 39.9582 33.3979 39.7278 33.1908 39.5424Z" fill="#2E3759"/>
<path d="M27.3323 52.2372L26.7791 51.8595L28.9194 48.8352L29.4727 49.2129L27.3323 52.2372ZM30.2563 51.3949L29.7864 52.0589L23.5932 47.8304C23.3109 47.6377 23.072 47.5297 22.8763 47.5065C22.6806 47.4832 22.5162 47.5144 22.383 47.6C22.2498 47.6857 22.1346 47.7973 22.0371 47.9349C21.9661 48.0354 21.9033 48.136 21.8487 48.2367C21.798 48.3399 21.7538 48.4339 21.7162 48.5186L21.1263 48.1572C21.1578 48.0574 21.2122 47.9372 21.2892 47.7967C21.3626 47.6537 21.4453 47.5171 21.5374 47.3869C21.7191 47.1302 21.9267 46.9354 22.1603 46.8025C22.3977 46.6721 22.6726 46.6308 22.9849 46.6785C23.301 46.7288 23.6623 46.8927 24.0688 47.1703L30.2563 51.3949Z" fill="#2E3759"/>
<path d="M23.7063 57.9842L17.2798 54.3226L17.6935 53.6221L24.12 57.2838L23.7063 57.9842ZM26.0521 58.2195C26.1867 58.2962 26.2752 58.4017 26.3176 58.536C26.3617 58.6764 26.3397 58.8212 26.2516 58.9703C26.1635 59.1195 26.0465 59.2101 25.9005 59.2423C25.7561 59.2806 25.6166 59.2615 25.482 59.1848C25.3513 59.1103 25.2651 59.0009 25.2234 58.8565C25.1833 58.7183 25.2073 58.5746 25.2953 58.4255C25.3834 58.2764 25.4985 58.1846 25.6405 58.1502C25.7842 58.1219 25.9214 58.145 26.0521 58.2195Z" fill="#2E3759"/>
<path d="M13.0003 65.5224L16.4767 67.0923C16.7965 67.2367 17.1037 67.2954 17.3981 67.2684C17.6925 67.2413 17.9619 67.128 18.2063 66.9283C18.4507 66.7287 18.6608 66.4411 18.8366 66.0655C18.9989 65.7188 19.0815 65.3811 19.0844 65.0524C19.0895 64.7297 19.025 64.4431 18.8907 64.1924C18.7587 63.9478 18.5681 63.7692 18.3189 63.6567L18.6729 62.9166C18.9262 63.031 19.1423 63.2035 19.3211 63.4343C19.4998 63.665 19.6296 63.9361 19.7102 64.2475C19.7908 64.5589 19.8117 64.8959 19.7729 65.2583C19.7363 65.6268 19.6291 66.0009 19.4513 66.3806C19.2272 66.8594 18.9492 67.2438 18.6172 67.5339C18.2832 67.8281 17.906 68.0052 17.4854 68.0653C17.0648 68.1254 16.6095 68.0447 16.1194 67.8234L12.8611 66.352C12.6285 66.2469 12.3798 66.1546 12.1152 66.0751C11.8486 65.9997 11.6188 65.9585 11.4259 65.9514L11.3512 65.9176L11.7192 65.1313C11.8919 65.1493 12.0972 65.1945 12.335 65.2669C12.575 65.3453 12.7968 65.4304 13.0003 65.5224ZM15.6355 66.9224L15.0565 66.6759L15.7376 65.221C15.9153 64.8413 16.0394 64.4848 16.1099 64.1516C16.1825 63.8244 16.2007 63.5276 16.1644 63.2612C16.1322 62.9967 16.0508 62.7675 15.9203 62.5735C15.7877 62.3836 15.6052 62.2362 15.3726 62.1312C15.1317 62.0224 14.8836 61.9828 14.6282 62.0125C14.3708 62.0463 14.1298 62.1474 13.905 62.3159C13.6825 62.4904 13.4987 62.7324 13.3538 63.042C13.1606 63.4547 13.0674 63.8527 13.0743 64.2358C13.0792 64.623 13.1579 64.976 13.3105 65.2949C13.4631 65.6139 13.6705 65.875 13.9325 66.0783L13.3519 66.2061C13.1694 66.0587 13.0019 65.863 12.8493 65.6192C12.6991 65.3813 12.5815 65.1057 12.4967 64.7924C12.4161 64.481 12.388 64.1433 12.4124 63.7794C12.4391 63.4214 12.5433 63.0485 12.7249 62.6605C12.9297 62.223 13.1914 61.8787 13.5102 61.6276C13.827 61.3807 14.1713 61.2312 14.5429 61.179C14.9167 61.1328 15.2863 61.1922 15.6518 61.3573C15.9841 61.5073 16.2482 61.7116 16.4442 61.9701C16.6443 62.2305 16.774 62.534 16.8331 62.8807C16.8944 63.2334 16.8849 63.6191 16.8046 64.0379C16.7265 64.4626 16.5774 64.9102 16.3571 65.3808L15.6355 66.9224Z" fill="#2E3759"/>
<path d="M18.6353 76.2089L8.70417 72.7996L8.97689 72.0332L18.908 75.4425L18.6353 76.2089Z" fill="#2E3759"/>
<path d="M7.20074 84.6577C7.39563 84.7048 7.60051 84.7028 7.81537 84.6517C8.03022 84.6005 8.25231 84.455 8.48161 84.2151C8.70981 83.9796 8.94635 83.6078 9.19123 83.0997C9.3796 82.7233 9.56851 82.3916 9.75796 82.1046C9.9463 81.8219 10.1446 81.5933 10.3528 81.4186C10.5611 81.2439 10.7876 81.1276 11.0324 81.0696C11.2771 81.0116 11.5479 81.0185 11.8447 81.0904C12.1104 81.1547 12.3463 81.2727 12.5522 81.4444C12.7615 81.6216 12.9275 81.84 13.0504 82.0995C13.1766 82.3644 13.2518 82.6639 13.2761 82.998C13.2992 83.3365 13.262 83.7003 13.1645 84.0893C13.0259 84.6418 12.812 85.0917 12.5229 85.4391C12.2371 85.7919 11.9064 86.0331 11.531 86.1626C11.1544 86.2965 10.7624 86.3142 10.3549 86.2156L10.5527 85.4265C10.8008 85.4866 11.0539 85.4704 11.3119 85.3781C11.5689 85.2903 11.8031 85.1243 12.0147 84.8801C12.2252 84.6403 12.3803 84.3215 12.4801 83.9237C12.5832 83.5126 12.6049 83.1638 12.5452 82.8774C12.4855 82.591 12.3753 82.3651 12.2148 82.1997C12.0531 82.0387 11.8704 81.9335 11.6667 81.8842C11.5072 81.8456 11.355 81.8346 11.2099 81.851C11.0681 81.873 10.9252 81.9369 10.7812 82.0427C10.6361 82.153 10.4833 82.3223 10.3226 82.5506C10.162 82.779 9.98472 83.0831 9.79081 83.4628C9.51712 84.0108 9.24125 84.4458 8.9632 84.7676C8.68846 85.095 8.39382 85.3144 8.07928 85.4259C7.76917 85.5384 7.42364 85.5485 7.04271 85.4564C6.74593 85.3845 6.48904 85.2567 6.27203 85.073C6.05946 84.8902 5.89396 84.6603 5.77554 84.3832C5.65601 84.1104 5.58854 83.7987 5.57313 83.448C5.55661 83.1018 5.5988 82.7275 5.69968 82.3252C5.85157 81.7196 6.07983 81.231 6.38448 80.8593C6.69245 80.4931 7.03748 80.2413 7.41959 80.104C7.80501 79.9722 8.18376 79.9514 8.55584 80.0414L8.35795 80.8304C7.97922 80.7669 7.65528 80.8128 7.38613 80.968C7.12141 81.1243 6.90706 81.3421 6.74308 81.6212C6.578 81.9048 6.45831 82.1947 6.38404 82.4908C6.28204 82.8975 6.25647 83.2523 6.30733 83.5553C6.35819 83.8583 6.46333 84.1042 6.62275 84.2928C6.78217 84.4814 6.97483 84.603 7.20074 84.6577Z" fill="#2E3759"/>
<path d="M7.54406 102.734L6.8414 102.689L7.05804 99.4215L7.76071 99.4664L7.54406 102.734Z" fill="#2E3759"/>
<path d="M8.93308 117.637L3.15053 118.272L3.05843 117.464L10.4106 116.656L10.4989 117.43L8.93308 117.637ZM7.26099 117.635L7.42383 117.252C7.8618 117.232 8.27956 117.275 8.67711 117.383C9.07466 117.491 9.43284 117.655 9.75165 117.877C10.071 118.103 10.3318 118.379 10.5341 118.705C10.7369 119.036 10.8623 119.412 10.9103 119.833C10.9521 120.2 10.9396 120.534 10.873 120.835C10.8064 121.135 10.6759 121.399 10.4817 121.627C10.2875 121.855 10.0264 122.039 9.69856 122.181C9.3712 122.327 8.96289 122.427 8.47365 122.481L3.68997 123.006L3.5971 122.191L8.38758 121.665C8.89494 121.609 9.28331 121.495 9.55271 121.324C9.82663 121.151 10.01 120.929 10.1029 120.658C10.1958 120.386 10.2222 120.074 10.1819 119.721C10.1376 119.331 10.0125 118.999 9.80685 118.724C9.60622 118.452 9.35865 118.232 9.06415 118.062C8.77469 117.897 8.47001 117.779 8.1501 117.709C7.83473 117.638 7.53836 117.614 7.26099 117.635Z" fill="#2E3759"/>
<path d="M7.53792 133.592L13.0889 132.353L13.2738 133.152L6.0548 134.763L5.87766 133.997L7.53792 133.592ZM8.90618 133.44L9.01503 133.85C8.56134 133.951 8.13092 133.991 7.72375 133.97C7.31658 133.949 6.94448 133.857 6.60744 133.694C6.2704 133.531 5.98245 133.287 5.74359 132.962C5.50473 132.637 5.32677 132.222 5.2097 131.716C5.12857 131.365 5.10304 131.032 5.13312 130.717C5.16867 130.406 5.27128 130.121 5.44096 129.864C5.61064 129.607 5.8556 129.382 6.17584 129.189C6.4971 129 6.90459 128.851 7.39831 128.741L12.0152 127.711L12.1985 128.503L7.56827 129.537C7.18131 129.623 6.86859 129.737 6.63012 129.879C6.39268 130.025 6.21358 130.191 6.09282 130.377C5.97309 130.567 5.90297 130.77 5.88246 130.984C5.86196 131.199 5.87841 131.422 5.93181 131.653C6.06736 132.239 6.28759 132.675 6.59248 132.962C6.89839 133.253 7.25237 133.429 7.65441 133.488C8.06192 133.552 8.47918 133.536 8.90618 133.44Z" fill="#2E3759"/>
<path d="M15.8236 141.269L15.187 141.477L13.9941 137.97L14.6306 137.761L15.8236 141.269ZM16.8743 138.456L17.1362 139.226L10.0109 141.564C9.68617 141.671 9.45619 141.794 9.32099 141.935C9.1858 142.075 9.11353 142.223 9.10419 142.38C9.09486 142.536 9.11734 142.694 9.17163 142.854C9.21125 142.971 9.2559 143.081 9.30557 143.184C9.35958 143.286 9.40991 143.378 9.45658 143.458L8.81157 143.706C8.74897 143.621 8.68334 143.506 8.61466 143.361C8.54165 143.217 8.47946 143.069 8.42811 142.918C8.32686 142.62 8.29147 142.34 8.32196 142.075C8.35677 141.81 8.4864 141.568 8.71085 141.351C8.93963 141.132 9.28784 140.945 9.7555 140.792L16.8743 138.456Z" fill="#2E3759"/>
<path d="M17.1559 147.924L11.4751 150.34L11.1471 149.595L17.9539 146.701L18.2737 147.427L17.1559 147.924ZM19.3881 149.82L18.6878 150.096C18.6636 150.007 18.6383 149.921 18.6118 149.838C18.5852 149.755 18.5517 149.668 18.5113 149.576C18.368 149.251 18.1813 148.991 17.9512 148.797C17.7272 148.605 17.4715 148.471 17.1841 148.395C16.9009 148.318 16.5974 148.296 16.2736 148.329C15.954 148.361 15.63 148.44 15.3015 148.564L15.0733 148.335C15.5178 148.146 15.9512 148.016 16.3733 147.945C16.7953 147.875 17.1903 147.873 17.5582 147.939C17.9321 148.008 18.2622 148.152 18.5484 148.372C18.8406 148.595 19.0731 148.902 19.2458 149.294C19.2881 149.39 19.321 149.487 19.3447 149.586C19.3744 149.687 19.3888 149.765 19.3881 149.82Z" fill="#2E3759"/>
<path d="M22.1274 155.31L15.5765 158.744L15.1881 158.03L21.7389 154.595L22.1274 155.31ZM23.5654 153.476C23.7026 153.404 23.8405 153.385 23.9791 153.421C24.1238 153.458 24.2375 153.553 24.3202 153.705C24.4029 153.857 24.4197 154.003 24.3707 154.142C24.3279 154.282 24.2379 154.389 24.1007 154.461C23.9675 154.531 23.8275 154.545 23.6805 154.503C23.5398 154.464 23.4281 154.368 23.3454 154.216C23.2628 154.064 23.2439 153.919 23.2889 153.783C23.34 153.648 23.4322 153.545 23.5654 153.476Z" fill="#2E3759"/>
<path d="M21.3513 167.169C21.5449 167.457 21.7793 167.69 22.0544 167.87C22.3359 168.051 22.6384 168.153 22.9619 168.176C23.2917 168.201 23.6209 168.123 23.9494 167.942L24.3851 168.588C23.9789 168.825 23.5472 168.935 23.09 168.917C22.6392 168.9 22.2074 168.773 21.7948 168.536C21.3884 168.3 21.0439 167.973 20.7611 167.553C20.4731 167.126 20.2967 166.698 20.2316 166.267C20.1691 165.84 20.2034 165.426 20.3345 165.026C20.4694 164.623 20.6858 164.243 20.9838 163.886C21.2881 163.53 21.658 163.211 22.0934 162.928L22.3341 162.771C22.7696 162.488 23.2115 162.279 23.6597 162.145C24.1143 162.012 24.555 161.965 24.9816 162.003C25.4121 162.038 25.8152 162.167 26.1909 162.39C26.5667 162.613 26.8985 162.938 27.1864 163.365C27.482 163.804 27.6572 164.255 27.712 164.719C27.7695 165.188 27.704 165.632 27.5156 166.054C27.3297 166.479 27.0178 166.848 26.5798 167.16L26.1441 166.514C26.4637 166.279 26.6916 166.006 26.8278 165.694C26.964 165.383 27.0117 165.058 26.9708 164.72C26.93 164.383 26.8051 164.059 26.5962 163.749C26.3618 163.402 26.093 163.15 25.7899 162.994C25.4906 162.835 25.1703 162.755 24.829 162.754C24.494 162.755 24.1515 162.817 23.8013 162.942C23.4549 163.064 23.1174 163.232 22.7889 163.445L22.5482 163.602C22.2159 163.818 21.9218 164.059 21.6658 164.323C21.4163 164.589 21.226 164.873 21.0948 165.175C20.9663 165.482 20.9161 165.803 20.9441 166.138C20.9786 166.474 21.1143 166.818 21.3513 167.169Z" fill="#2E3759"/>
<path d="M28.1586 177.29C27.8453 176.922 27.6258 176.528 27.5 176.106C27.3771 175.688 27.3432 175.262 27.398 174.827C27.4558 174.396 27.6022 173.978 27.8373 173.573C28.0788 173.167 28.4038 172.797 28.8121 172.461L29.0392 172.275C29.4792 171.913 29.9317 171.65 30.3966 171.486C30.8615 171.322 31.3168 171.249 31.7624 171.266C32.208 171.283 32.6203 171.38 32.9994 171.558C33.385 171.737 33.7138 171.986 33.9857 172.305C34.2902 172.662 34.4955 173.033 34.6018 173.417C34.7115 173.799 34.7283 174.181 34.652 174.562C34.5823 174.944 34.4286 175.315 34.191 175.675C33.9569 176.033 33.6481 176.369 33.2643 176.685L32.8789 177.002L29.2475 172.74L29.7861 172.298L32.8898 175.94L32.9638 175.879C33.2782 175.609 33.5227 175.298 33.6974 174.948C33.8785 174.599 33.9566 174.234 33.9316 173.853C33.9066 173.473 33.7434 173.106 33.4419 172.752C33.2172 172.488 32.954 172.292 32.6521 172.162C32.3533 172.036 32.0302 171.98 31.6831 171.995C31.3423 172.009 30.9907 172.092 30.6281 172.242C30.2721 172.394 29.9198 172.613 29.5712 172.899L29.3442 173.086C29.0274 173.346 28.7701 173.634 28.5724 173.95C28.3811 174.267 28.254 174.595 28.1912 174.936C28.1313 175.28 28.1438 175.618 28.2286 175.95C28.3134 176.281 28.477 176.589 28.7194 176.873C29.0032 177.206 29.316 177.45 29.658 177.606C30.0035 177.758 30.3989 177.825 30.8444 177.807L30.8707 178.449C30.5841 178.478 30.2851 178.465 29.9736 178.408C29.665 178.355 29.357 178.24 29.0497 178.062C28.7424 177.884 28.4454 177.627 28.1586 177.29Z" fill="#2E3759"/>
<path d="M39.1904 180.39L35.1369 184.563L34.5434 184.006L39.6972 178.701L40.2658 179.234L39.1904 180.39ZM37.8983 181.455L37.7768 181.06C38.1016 180.765 38.4523 180.532 38.8288 180.36C39.2052 180.188 39.5882 180.085 39.9776 180.05C40.3704 180.019 40.7503 180.063 41.1173 180.182C41.4877 180.304 41.8275 180.51 42.1367 180.8C42.4061 181.052 42.6122 181.314 42.7552 181.586C42.8981 181.857 42.9682 182.141 42.9654 182.438C42.9626 182.736 42.8804 183.043 42.7187 183.359C42.5603 183.679 42.3097 184.016 41.9667 184.369L38.6134 187.821L38.0149 187.26L41.373 183.803C41.7286 183.437 41.9549 183.103 42.0519 182.8C42.152 182.494 42.1502 182.208 42.0464 181.943C41.9426 181.677 41.761 181.422 41.5017 181.179C41.2157 180.911 40.9043 180.738 40.5675 180.66C40.2372 180.581 39.9037 180.571 39.5668 180.63C39.2365 180.689 38.9251 180.794 38.6327 180.944C38.3435 181.092 38.0987 181.262 37.8983 181.455Z" fill="#2E3759"/>
<path d="M50.4568 187.906L50.04 188.43L47.1 186.176L47.5169 185.651L50.4568 187.906ZM49.7789 184.991L50.4244 185.487L45.7578 191.357C45.5451 191.624 45.4211 191.854 45.3856 192.045C45.3502 192.236 45.3719 192.399 45.4507 192.534C45.5296 192.669 45.6359 192.788 45.7697 192.89C45.8674 192.965 45.9656 193.032 46.0645 193.091C46.1663 193.146 46.259 193.194 46.3427 193.235L45.9401 193.796C45.8407 193.76 45.7221 193.701 45.5842 193.618C45.4434 193.539 45.3098 193.451 45.1832 193.354C44.9337 193.162 44.7485 192.948 44.6278 192.712C44.5099 192.473 44.4846 192.2 44.5519 191.896C44.6221 191.588 44.8103 191.242 45.1166 190.856L49.7789 184.991Z" fill="#2E3759"/>
<path d="M56.0942 191.799L51.9828 197.947L51.2992 197.506L55.4107 191.358L56.0942 191.799ZM56.4794 189.501C56.5656 189.372 56.678 189.29 56.8166 189.255C56.9617 189.219 57.107 189.247 57.2525 189.341C57.398 189.435 57.4825 189.555 57.506 189.7C57.5358 189.844 57.5076 189.98 57.4215 190.109C57.3379 190.234 57.2216 190.314 57.0728 190.348C56.9303 190.38 56.7862 190.35 56.6407 190.256C56.4952 190.162 56.4094 190.044 56.3835 189.903C56.3638 189.76 56.3958 189.626 56.4794 189.501Z" fill="#2E3759"/>
<path d="M63.0873 202.771L64.8955 199.412C65.0619 199.103 65.1408 198.803 65.1324 198.511C65.124 198.219 65.0268 197.948 64.8409 197.697C64.6549 197.447 64.378 197.226 64.0099 197.034C63.6702 196.858 63.3345 196.761 63.0028 196.742C62.6772 196.722 62.3836 196.773 62.1219 196.893C61.8664 197.012 61.6739 197.192 61.5442 197.433L60.8195 197.049C60.9513 196.804 61.1394 196.599 61.3839 196.433C61.6284 196.267 61.9104 196.152 62.2301 196.087C62.5497 196.022 62.8913 196.017 63.2549 196.072C63.6246 196.126 63.9955 196.249 64.3676 196.442C64.8367 196.686 65.2071 196.978 65.4787 197.32C65.7544 197.663 65.9091 198.044 65.9428 198.462C65.9765 198.88 65.8659 199.326 65.611 199.799L63.9161 202.947C63.7951 203.172 63.686 203.413 63.5887 203.671C63.4955 203.93 63.4391 204.155 63.4195 204.345L63.3807 204.418L62.6102 204.017C62.6395 203.848 62.6983 203.647 62.7866 203.416C62.8812 203.183 62.9814 202.968 63.0873 202.771ZM64.67 200.235L64.384 200.795L62.9584 200.054C62.5864 199.861 62.2343 199.722 61.9024 199.637C61.5766 199.55 61.2781 199.518 61.0067 199.541C60.7376 199.561 60.5008 199.63 60.2966 199.75C60.0964 199.872 59.9358 200.045 59.8148 200.27C59.6895 200.503 59.6336 200.746 59.6472 200.999C59.6648 201.255 59.7515 201.498 59.9073 201.728C60.0692 201.956 60.3018 202.148 60.6051 202.306C61.0096 202.516 61.4054 202.626 61.7927 202.638C62.1841 202.651 62.5457 202.59 62.8775 202.454C63.2093 202.318 63.4863 202.126 63.7085 201.877L63.8003 202.456C63.6397 202.629 63.4314 202.785 63.1753 202.925C62.9255 203.062 62.6397 203.165 62.3179 203.234C61.9982 203.299 61.6554 203.311 61.2894 203.27C60.9297 203.227 60.5597 203.106 60.1795 202.909C59.7508 202.686 59.42 202.412 59.1869 202.085C58.9578 201.761 58.8289 201.414 58.8 201.045C58.7773 200.673 58.8611 200.311 59.0512 199.958C59.224 199.637 59.4472 199.386 59.7208 199.205C59.9966 199.019 60.3114 198.905 60.6653 198.863C61.0254 198.819 61.4143 198.847 61.8321 198.946C62.256 199.043 62.6985 199.211 63.1595 199.45L64.67 200.235Z" fill="#2E3759"/>
<path d="M74.3395 197.775L70.2689 207.454L69.5151 207.148L73.5857 197.469L74.3395 197.775Z" fill="#2E3759"/>
<path d="M82.1992 209.574C82.2588 209.383 82.2698 209.179 82.2321 208.963C82.1944 208.747 82.0625 208.52 81.8363 208.28C81.6145 208.042 81.2566 207.79 80.7624 207.522C80.3967 207.317 80.0759 207.113 79.7999 206.911C79.5283 206.711 79.3115 206.503 79.1495 206.288C78.9874 206.072 78.8851 205.842 78.8424 205.596C78.7997 205.35 78.8238 205.081 78.9147 204.789C78.996 204.528 79.1294 204.3 79.3147 204.103C79.5058 203.904 79.7353 203.749 80.0034 203.639C80.2772 203.526 80.5825 203.466 80.9191 203.458C81.2602 203.451 81.6228 203.505 82.0068 203.621C82.5524 203.785 82.9902 204.019 83.3203 204.322C83.6561 204.623 83.8771 204.963 83.9833 205.343C84.0938 205.723 84.0867 206.114 83.9619 206.514L83.1829 206.28C83.2588 206.036 83.2587 205.784 83.1825 205.523C83.1106 205.263 82.9589 205.023 82.7273 204.801C82.5001 204.58 82.1901 204.411 81.7973 204.293C81.3915 204.171 81.043 204.133 80.7519 204.178C80.4608 204.224 80.2272 204.323 80.051 204.474C79.8792 204.627 79.7622 204.804 79.6998 205.004C79.651 205.161 79.6302 205.311 79.6376 205.456C79.6506 205.598 79.7057 205.743 79.8027 205.892C79.9041 206.041 80.0643 206.201 80.2832 206.371C80.5021 206.542 80.796 206.733 81.1646 206.943C81.697 207.241 82.1159 207.536 82.4212 207.828C82.7322 208.117 82.9336 208.42 83.0255 208.738C83.1187 209.051 83.107 209.395 82.9904 209.769C82.8996 210.061 82.7551 210.31 82.557 210.517C82.3602 210.719 82.119 210.873 81.8335 210.978C81.5523 211.083 81.2353 211.136 80.8825 211.134C80.5341 211.134 80.1613 211.074 79.7642 210.955C79.1663 210.775 78.6905 210.525 78.3369 210.205C77.989 209.881 77.7583 209.526 77.6448 209.14C77.537 208.751 77.5401 208.373 77.654 208.008L78.433 208.242C78.3453 208.615 78.3708 208.94 78.5095 209.214C78.6495 209.485 78.8543 209.708 79.124 209.885C79.398 210.062 79.6812 210.195 79.9736 210.283C80.3752 210.403 80.7295 210.446 81.0367 210.41C81.3439 210.374 81.5972 210.281 81.7965 210.131C81.9958 209.982 82.13 209.796 82.1992 209.574Z" fill="#2E3759"/>
<path d="M100.644 210.238L100.558 210.937L97.306 210.55L97.3922 209.851L100.644 210.238Z" fill="#2E3759"/>
<path d="M115.925 209.695L116.256 215.503L115.444 215.547L115.023 208.163L115.801 208.12L115.925 209.695ZM115.835 211.363L115.462 211.179C115.464 210.74 115.53 210.326 115.658 209.935C115.787 209.545 115.97 209.197 116.208 208.892C116.451 208.586 116.74 208.342 117.077 208.159C117.418 207.976 117.8 207.873 118.223 207.85C118.592 207.83 118.925 207.862 119.222 207.946C119.518 208.03 119.776 208.175 119.993 208.382C120.21 208.59 120.381 208.861 120.505 209.196C120.633 209.532 120.712 209.945 120.74 210.436L121.014 215.241L120.195 215.286L119.92 210.475C119.891 209.965 119.798 209.571 119.641 209.292C119.483 209.008 119.271 208.812 119.005 208.704C118.738 208.595 118.428 208.551 118.073 208.57C117.681 208.592 117.343 208.697 117.057 208.886C116.775 209.071 116.542 209.305 116.357 209.589C116.177 209.868 116.043 210.165 115.956 210.48C115.869 210.791 115.829 211.085 115.835 211.363Z" fill="#2E3759"/>
<path d="M132.029 212.019L131.062 206.415L131.871 206.28L133.128 213.569L132.353 213.698L132.029 212.019ZM131.945 210.647L132.36 210.564C132.439 211.022 132.458 211.453 132.417 211.858C132.376 212.262 132.265 212.627 132.086 212.952C131.906 213.278 131.648 213.55 131.311 213.767C130.974 213.985 130.549 214.137 130.036 214.222C129.681 214.281 129.347 214.286 129.033 214.237C128.723 214.182 128.443 214.062 128.194 213.877C127.945 213.692 127.732 213.435 127.554 213.104C127.381 212.772 127.252 212.357 127.166 211.859L126.362 207.197L127.164 207.063L127.971 211.739C128.038 212.129 128.137 212.448 128.267 212.694C128.402 212.939 128.56 213.128 128.74 213.26C128.924 213.391 129.123 213.473 129.337 213.507C129.551 213.541 129.775 213.538 130.009 213.499C130.602 213.4 131.05 213.208 131.352 212.922C131.659 212.635 131.852 212.294 131.931 211.897C132.015 211.495 132.019 211.078 131.945 210.647Z" fill="#2E3759"/>
<path d="M140.323 204.216L140.502 204.861L136.924 205.822L136.744 205.177L140.323 204.216ZM137.549 202.993L138.334 202.782L140.345 210.006C140.437 210.336 140.55 210.572 140.684 210.715C140.819 210.858 140.964 210.939 141.121 210.959C141.278 210.978 141.438 210.966 141.601 210.922C141.719 210.89 141.832 210.853 141.938 210.81C142.044 210.763 142.138 210.719 142.221 210.678L142.439 211.334C142.351 211.391 142.232 211.448 142.083 211.507C141.935 211.571 141.784 211.623 141.63 211.664C141.326 211.746 141.042 211.763 140.779 211.716C140.514 211.665 140.277 211.52 140.069 211.284C139.86 211.043 139.69 210.685 139.558 210.211L137.549 202.993Z" fill="#2E3759"/>
<path d="M147.204 203.274L149.372 209.054L148.607 209.33L146.009 202.405L146.755 202.135L147.204 203.274ZM149.217 201.186L149.462 201.897C149.371 201.915 149.284 201.935 149.199 201.956C149.114 201.977 149.025 202.004 148.931 202.039C148.596 202.16 148.326 202.328 148.12 202.543C147.916 202.752 147.769 202.997 147.679 203.276C147.588 203.552 147.552 203.851 147.571 204.174C147.588 204.492 147.652 204.818 147.762 205.151L147.52 205.362C147.35 204.91 147.24 204.473 147.188 204.05C147.137 203.628 147.153 203.237 147.237 202.877C147.324 202.511 147.485 202.193 147.72 201.924C147.957 201.649 148.277 201.439 148.68 201.293C148.779 201.258 148.878 201.231 148.979 201.214C149.083 201.191 149.162 201.182 149.217 201.186Z" fill="#2E3759"/>
<path d="M154.986 198.781L158.148 205.467L157.407 205.805L154.246 199.118L154.986 198.781ZM153.2 197.243C153.134 197.103 153.122 196.966 153.165 196.832C153.209 196.691 153.31 196.585 153.468 196.513C153.625 196.441 153.773 196.434 153.911 196.491C154.051 196.542 154.154 196.638 154.22 196.778C154.285 196.914 154.293 197.053 154.244 197.196C154.198 197.332 154.096 197.436 153.938 197.508C153.78 197.58 153.634 197.589 153.498 197.536C153.364 197.477 153.265 197.379 153.2 197.243Z" fill="#2E3759"/>
<path d="M167.016 200.235C167.316 200.063 167.564 199.847 167.76 199.587C167.957 199.321 168.075 199.03 168.114 198.713C168.155 198.39 168.092 198.061 167.924 197.727L168.6 197.338C168.82 197.753 168.91 198.185 168.87 198.633C168.832 199.076 168.682 199.493 168.422 199.884C168.163 200.27 167.815 200.588 167.376 200.84C166.93 201.097 166.487 201.244 166.048 201.281C165.612 201.316 165.195 201.256 164.795 201.102C164.394 200.944 164.019 200.707 163.672 200.392C163.326 200.07 163.021 199.686 162.755 199.24L162.608 198.993C162.342 198.547 162.152 198.099 162.038 197.649C161.925 197.193 161.899 196.757 161.958 196.339C162.014 195.918 162.164 195.529 162.409 195.173C162.653 194.818 162.998 194.511 163.445 194.255C163.903 193.991 164.369 193.847 164.842 193.822C165.319 193.795 165.766 193.887 166.184 194.099C166.606 194.308 166.965 194.638 167.26 195.089L166.584 195.477C166.361 195.148 166.095 194.907 165.786 194.753C165.477 194.6 165.151 194.533 164.807 194.552C164.463 194.571 164.129 194.673 163.805 194.86C163.441 195.068 163.173 195.317 163 195.606C162.825 195.89 162.729 196.201 162.712 196.537C162.696 196.866 162.743 197.207 162.852 197.56C162.959 197.908 163.112 198.251 163.313 198.588L163.46 198.834C163.663 199.175 163.892 199.479 164.148 199.748C164.405 200.01 164.683 200.215 164.984 200.363C165.288 200.509 165.61 200.578 165.951 200.571C166.294 200.559 166.649 200.447 167.016 200.235Z" fill="#2E3759"/>
<path d="M177.677 194.074C177.288 194.36 176.876 194.552 176.441 194.651C176.01 194.746 175.575 194.754 175.137 194.675C174.702 194.592 174.285 194.424 173.885 194.169C173.486 193.907 173.127 193.566 172.807 193.146L172.629 192.912C172.284 192.458 172.041 191.998 171.898 191.532C171.755 191.066 171.704 190.615 171.744 190.178C171.785 189.742 171.905 189.343 172.105 188.981C172.306 188.614 172.576 188.306 172.914 188.058C173.292 187.78 173.68 187.6 174.076 187.519C174.469 187.434 174.857 187.44 175.241 187.538C175.625 187.629 175.994 187.802 176.348 188.057C176.699 188.308 177.025 188.631 177.325 189.026L177.627 189.424L173.113 192.735L172.691 192.18L176.549 189.35L176.491 189.273C176.233 188.949 175.931 188.69 175.584 188.498C175.239 188.299 174.872 188.201 174.484 188.203C174.096 188.205 173.715 188.343 173.34 188.618C173.061 188.823 172.848 189.07 172.701 189.358C172.558 189.644 172.484 189.958 172.481 190.3C172.478 190.635 172.544 190.985 172.678 191.35C172.813 191.708 173.017 192.067 173.29 192.426L173.468 192.66C173.717 192.987 173.996 193.257 174.307 193.47C174.618 193.676 174.946 193.82 175.288 193.902C175.635 193.982 175.979 193.99 176.319 193.926C176.66 193.862 176.981 193.72 177.283 193.499C177.636 193.24 177.9 192.948 178.075 192.621C178.248 192.291 178.336 191.907 178.341 191.469L178.994 191.481C179.009 191.764 178.98 192.057 178.906 192.359C178.836 192.659 178.703 192.954 178.507 193.246C178.31 193.537 178.034 193.813 177.677 194.074Z" fill="#2E3759"/>
<path d="M181.421 183.376L185.439 187.583L184.84 188.134L179.732 182.785L180.306 182.257L181.421 183.376ZM182.433 184.702L182.025 184.799C181.743 184.464 181.525 184.107 181.371 183.729C181.217 183.35 181.133 182.969 181.12 182.585C181.109 182.198 181.175 181.828 181.316 181.474C181.461 181.118 181.689 180.796 182.001 180.509C182.273 180.259 182.55 180.071 182.834 179.946C183.118 179.821 183.411 179.768 183.712 179.787C184.014 179.807 184.322 179.904 184.635 180.081C184.951 180.254 185.28 180.518 185.62 180.874L188.943 184.355L188.34 184.911L185.012 181.425C184.659 181.056 184.332 180.815 184.03 180.703C183.724 180.588 183.434 180.574 183.157 180.661C182.881 180.748 182.613 180.912 182.351 181.153C182.063 181.418 181.87 181.714 181.771 182.04C181.673 182.36 181.645 182.686 181.686 183.02C181.728 183.347 181.817 183.658 181.954 183.953C182.088 184.245 182.247 184.495 182.433 184.702Z" fill="#2E3759"/>
<path d="M189.68 172.72L190.188 173.157L187.725 175.924L187.217 175.488L189.68 172.72ZM186.679 173.234L187.22 172.626L192.909 177.512C193.169 177.734 193.394 177.868 193.586 177.913C193.778 177.958 193.945 177.945 194.087 177.874C194.229 177.804 194.356 177.706 194.468 177.58C194.55 177.488 194.624 177.395 194.689 177.301C194.751 177.204 194.805 177.116 194.852 177.036L195.399 177.46C195.356 177.556 195.289 177.669 195.197 177.8C195.108 177.934 195.01 178.061 194.904 178.18C194.695 178.415 194.467 178.585 194.22 178.691C193.97 178.795 193.692 178.805 193.387 178.723C193.078 178.638 192.737 178.435 192.363 178.115L186.679 173.234Z" fill="#2E3759"/>
<path d="M193.935 167.399L199.92 171.746L199.43 172.396L193.446 168.049L193.935 167.399ZM191.628 166.907C191.503 166.816 191.426 166.701 191.399 166.563C191.371 166.419 191.409 166.277 191.513 166.139C191.617 166.001 191.744 165.924 191.892 165.908C192.04 165.886 192.177 165.92 192.302 166.011C192.424 166.099 192.497 166.218 192.523 166.366C192.547 166.507 192.508 166.647 192.403 166.786C192.299 166.924 192.175 167.003 192.03 167.021C191.883 167.033 191.75 166.995 191.628 166.907Z" fill="#2E3759"/>
<path d="M205.43 161.081L202.147 159.14C201.845 158.961 201.546 158.869 201.25 158.863C200.954 158.858 200.674 158.941 200.408 159.112C200.143 159.283 199.902 159.546 199.685 159.899C199.485 160.226 199.365 160.552 199.326 160.878C199.285 161.198 199.317 161.489 199.423 161.753C199.527 162.01 199.697 162.209 199.932 162.348L199.497 163.044C199.258 162.902 199.062 162.707 198.91 162.458C198.758 162.21 198.659 161.926 198.614 161.608C198.568 161.29 198.585 160.953 198.664 160.598C198.741 160.236 198.89 159.876 199.109 159.519C199.385 159.068 199.705 158.717 200.067 158.465C200.432 158.21 200.827 158.076 201.252 158.062C201.677 158.049 202.121 158.179 202.584 158.453L205.661 160.273C205.881 160.403 206.118 160.522 206.373 160.63C206.629 160.734 206.853 160.8 207.044 160.829L207.115 160.87L206.661 161.611C206.491 161.574 206.292 161.506 206.064 161.408C205.834 161.304 205.623 161.195 205.43 161.081ZM202.965 159.401L203.513 159.709L202.674 161.079C202.455 161.437 202.292 161.777 202.185 162.1C202.076 162.417 202.025 162.709 202.031 162.978C202.034 163.244 202.089 163.481 202.197 163.688C202.308 163.891 202.473 164.057 202.693 164.187C202.92 164.322 203.163 164.388 203.42 164.387C203.68 164.382 203.931 164.308 204.173 164.165C204.414 164.017 204.624 163.797 204.803 163.505C205.041 163.117 205.178 162.732 205.214 162.351C205.252 161.966 205.213 161.606 205.097 161.273C204.98 160.939 204.803 160.657 204.565 160.427L205.157 160.364C205.322 160.53 205.467 160.743 205.591 161.002C205.714 161.255 205.801 161.541 205.85 161.861C205.896 162.18 205.886 162.518 205.821 162.877C205.755 163.229 205.61 163.588 205.386 163.953C205.133 164.365 204.834 164.678 204.489 164.892C204.147 165.103 203.788 165.213 203.412 165.224C203.035 165.229 202.674 165.129 202.329 164.925C202.015 164.739 201.775 164.507 201.609 164.229C201.439 163.948 201.344 163.633 201.324 163.282C201.302 162.925 201.354 162.543 201.481 162.136C201.606 161.723 201.804 161.295 202.075 160.852L202.965 159.401Z" fill="#2E3759"/>
<path d="M201.026 149.834L210.525 154.309L210.168 155.04L200.669 150.565L201.026 149.834Z" fill="#2E3759"/>
<path d="M213.35 142.687C213.162 142.619 212.958 142.599 212.738 142.626C212.519 142.653 212.281 142.773 212.026 142.986C211.773 143.195 211.496 143.539 211.195 144.016C210.966 144.369 210.741 144.678 210.52 144.942C210.301 145.202 210.078 145.408 209.851 145.558C209.625 145.709 209.386 145.8 209.136 145.831C208.886 145.861 208.618 145.825 208.331 145.721C208.073 145.628 207.852 145.485 207.667 145.292C207.478 145.093 207.338 144.858 207.244 144.587C207.149 144.31 207.107 144.005 207.121 143.67C207.136 143.332 207.213 142.975 207.354 142.599C207.554 142.066 207.817 141.642 208.144 141.329C208.468 141.01 208.823 140.807 209.211 140.719C209.601 140.627 209.993 140.653 210.387 140.795L210.102 141.557C209.862 141.47 209.608 141.459 209.341 141.522C209.076 141.581 208.824 141.72 208.586 141.94C208.35 142.155 208.16 142.454 208.016 142.838C207.868 143.235 207.807 143.579 207.834 143.87C207.861 144.161 207.946 144.397 208.087 144.579C208.23 144.757 208.4 144.881 208.597 144.952C208.751 145.008 208.901 145.036 209.047 145.035C209.191 145.029 209.34 144.981 209.495 144.892C209.652 144.798 209.823 144.647 210.008 144.438C210.194 144.228 210.404 143.946 210.64 143.59C210.973 143.076 211.297 142.674 211.609 142.385C211.919 142.09 212.237 141.905 212.562 141.828C212.884 141.75 213.228 141.778 213.597 141.911C213.884 142.015 214.125 142.17 214.321 142.376C214.512 142.581 214.65 142.827 214.737 143.116C214.825 143.4 214.858 143.716 214.834 144.066C214.811 144.412 214.727 144.779 214.582 145.167C214.363 145.752 214.081 146.212 213.736 146.548C213.389 146.878 213.017 147.09 212.622 147.185C212.224 147.273 211.845 147.253 211.485 147.122L211.77 146.361C212.14 146.465 212.467 146.455 212.752 146.33C213.033 146.204 213.271 146.011 213.465 145.752C213.661 145.489 213.813 145.214 213.92 144.928C214.067 144.535 214.132 144.186 214.115 143.879C214.099 143.573 214.022 143.317 213.884 143.113C213.747 142.908 213.569 142.766 213.35 142.687Z" fill="#2E3759"/>
<path d="M215.042 124.677L215.735 124.799L215.152 128.021L214.458 127.899L215.042 124.677Z" fill="#2E3759"/>
<path d="M215.337 109.712L221.154 109.709L221.155 110.523L213.758 110.526L213.758 109.747L215.337 109.712ZM216.998 109.896L216.793 110.258C216.356 110.231 215.945 110.143 215.562 109.992C215.18 109.842 214.842 109.639 214.55 109.384C214.259 109.125 214.031 108.822 213.866 108.476C213.702 108.125 213.62 107.737 213.62 107.314C213.62 106.944 213.67 106.614 213.77 106.322C213.87 106.031 214.029 105.782 214.248 105.577C214.467 105.372 214.747 105.217 215.088 105.112C215.43 105.002 215.847 104.947 216.339 104.947L221.152 104.945L221.152 105.765L216.333 105.767C215.823 105.768 215.424 105.838 215.137 105.98C214.845 106.121 214.638 106.322 214.515 106.582C214.392 106.841 214.331 107.149 214.331 107.505C214.331 107.897 214.418 108.241 214.591 108.537C214.76 108.828 214.981 109.074 215.255 109.275C215.523 109.471 215.813 109.621 216.123 109.725C216.428 109.83 216.72 109.887 216.998 109.896Z" fill="#2E3759"/>
<path d="M218.516 94.0047L212.864 94.6314L212.77 93.8165L220.121 93.0015L220.211 93.7825L218.516 94.0047ZM217.14 94.006L217.078 93.5864C217.54 93.5352 217.973 93.5423 218.375 93.6078C218.777 93.6733 219.136 93.8054 219.452 94.0042C219.769 94.2029 220.027 94.4769 220.228 94.826C220.429 95.1752 220.559 95.6078 220.618 96.124C220.659 96.4817 220.647 96.8154 220.582 97.1253C220.511 97.4311 220.377 97.7027 220.18 97.9401C219.982 98.1775 219.714 98.3747 219.374 98.5316C219.034 98.6839 218.612 98.788 218.109 98.8437L213.408 99.3649L213.315 98.5568L218.03 98.034C218.424 97.9903 218.747 97.9109 219 97.7958C219.253 97.6761 219.449 97.5305 219.59 97.359C219.73 97.183 219.823 96.9893 219.867 96.778C219.912 96.5668 219.921 96.3434 219.893 96.108C219.825 95.5104 219.655 95.0523 219.385 94.7338C219.114 94.4108 218.782 94.1977 218.389 94.0945C217.992 93.9873 217.575 93.9578 217.14 94.006Z" fill="#2E3759"/>
<path d="M211.149 85.4737L211.805 85.3355L212.595 88.9552L211.94 89.0934L211.149 85.4737ZM209.79 88.1564L209.616 87.3616L216.954 85.8149C217.289 85.7444 217.531 85.6468 217.681 85.522C217.831 85.3972 217.919 85.2575 217.946 85.1028C217.973 84.9481 217.968 84.7884 217.932 84.6237C217.906 84.5035 217.874 84.3891 217.836 84.2806C217.794 84.1731 217.755 84.0767 217.717 83.9914L218.386 83.8156C218.438 83.9069 218.49 84.0287 218.542 84.1807C218.599 84.3319 218.644 84.4853 218.678 84.6412C218.745 84.9484 218.749 85.2317 218.689 85.4912C218.624 85.7516 218.468 85.9777 218.221 86.1696C217.969 86.3624 217.603 86.5095 217.121 86.611L209.79 88.1564Z" fill="#2E3759"/>
<path d="M210.573 78.7167L216.483 76.9368L216.726 77.7133L209.644 79.8461L209.407 79.0891L210.573 78.7167ZM208.569 76.5861L209.295 76.3889C209.309 76.4798 209.324 76.5679 209.342 76.6532C209.359 76.7385 209.382 76.829 209.412 76.9247C209.518 77.264 209.674 77.5429 209.881 77.7615C210.082 77.977 210.321 78.1383 210.598 78.2453C210.87 78.3536 211.169 78.4087 211.494 78.4107C211.815 78.414 212.146 78.3716 212.486 78.2835L212.686 78.5371C212.224 78.6764 211.779 78.758 211.352 78.7819C210.925 78.8057 210.533 78.7645 210.175 78.6581C209.811 78.5486 209.5 78.3688 209.24 78.1186C208.975 77.8653 208.779 77.5342 208.651 77.1253C208.62 77.0252 208.598 76.9247 208.586 76.8237C208.567 76.7197 208.562 76.6405 208.569 76.5861Z" fill="#2E3759"/>
<path d="M206.465 70.8358L213.352 68.1394L213.658 68.8931L206.771 71.5896L206.465 70.8358ZM204.832 72.5027C204.688 72.5591 204.549 72.5621 204.415 72.5117C204.276 72.4587 204.174 72.3519 204.108 72.1914C204.043 72.031 204.043 71.8843 204.107 71.7516C204.165 71.6162 204.266 71.5203 204.411 71.4638C204.551 71.409 204.691 71.4102 204.833 71.4675C204.968 71.5222 205.068 71.6297 205.133 71.7902C205.198 71.9507 205.201 72.0965 205.141 72.2276C205.075 72.3561 204.972 72.4478 204.832 72.5027Z" fill="#2E3759"/>
<path d="M208.56 59.1373C208.4 58.8303 208.193 58.5722 207.94 58.363C207.681 58.1519 207.392 58.0168 207.073 57.958C206.748 57.8971 206.413 57.9387 206.066 58.0826L205.706 57.3918C206.135 57.2008 206.576 57.1394 207.028 57.2076C207.474 57.2738 207.889 57.4475 208.272 57.7289C208.649 58.0082 208.955 58.3721 209.189 58.8205C209.428 59.2769 209.555 59.7229 209.572 60.1585C209.586 60.5899 209.506 60.9977 209.332 61.3817C209.153 61.7677 208.896 62.1218 208.56 62.444C208.218 62.7641 207.816 63.0411 207.352 63.2749L207.095 63.4041C206.631 63.6379 206.169 63.7967 205.709 63.8805C205.243 63.9623 204.8 63.9609 204.381 63.8764C203.957 63.7938 203.571 63.6209 203.223 63.3576C202.875 63.0943 202.581 62.7344 202.343 62.2779C202.098 61.8093 201.974 61.341 201.972 60.873C201.967 60.4009 202.081 59.9656 202.315 59.5671C202.547 59.1645 202.898 58.8321 203.367 58.57L203.728 59.2607C203.385 59.4593 203.128 59.706 202.958 60.0009C202.788 60.2957 202.705 60.6133 202.708 60.9536C202.711 61.294 202.799 61.6298 202.972 61.9611C203.166 62.3327 203.405 62.6129 203.688 62.8016C203.968 62.9924 204.277 63.1071 204.616 63.1455C204.949 63.182 205.296 63.1576 205.657 63.0724C206.015 62.9892 206.369 62.8594 206.719 62.683L206.975 62.5538C207.329 62.3754 207.648 62.1689 207.931 61.9341C208.209 61.6974 208.429 61.4357 208.593 61.1491C208.755 60.8584 208.841 60.5448 208.85 60.2084C208.853 59.87 208.757 59.513 208.56 59.1373Z" fill="#2E3759"/>
<path d="M202.933 48.342C203.204 48.7423 203.378 49.159 203.456 49.5921C203.532 50.0215 203.518 50.4491 203.416 50.875C203.311 51.2972 203.119 51.6969 202.84 52.0743C202.555 52.4503 202.192 52.7827 201.749 53.0714L201.502 53.2319C201.025 53.543 200.547 53.7543 200.067 53.866C199.587 53.9776 199.126 54.0003 198.686 53.934C198.245 53.8678 197.846 53.7252 197.489 53.5064C197.126 53.2862 196.827 53.0025 196.592 52.6551C196.329 52.2661 196.167 51.8746 196.104 51.4804C196.037 51.0887 196.063 50.7076 196.181 50.3369C196.292 49.965 196.486 49.6129 196.762 49.2807C197.034 48.951 197.379 48.6505 197.795 48.3792L198.213 48.1067L201.347 52.7457L200.763 53.1264L198.084 49.1615L198.004 49.2138C197.662 49.4478 197.384 49.7292 197.172 50.058C196.953 50.3854 196.835 50.7398 196.818 51.121C196.8 51.5022 196.922 51.8854 197.182 52.2706C197.376 52.5576 197.616 52.7821 197.901 52.9441C198.184 53.1024 198.499 53.1937 198.845 53.2181C199.185 53.2411 199.544 53.1979 199.921 53.0882C200.291 52.9772 200.665 52.7986 201.043 52.5522L201.289 52.3917C201.633 52.1677 201.921 51.9096 202.152 51.6173C202.377 51.3237 202.54 51.0109 202.64 50.6791C202.738 50.3435 202.763 50.0062 202.715 49.6673C202.668 49.3284 202.539 49.0041 202.33 48.6945C202.085 48.332 201.801 48.0545 201.479 47.8622C201.153 47.6724 200.767 47.5619 200.323 47.5307L200.368 46.8894C200.656 46.8921 200.951 46.9388 201.255 47.0294C201.555 47.1163 201.848 47.2652 202.134 47.4762C202.419 47.6871 202.686 47.9757 202.933 48.342Z" fill="#2E3759"/>
<path d="M192.331 44.0597L196.821 40.3611L197.349 40.9798L191.64 45.6824L191.134 45.0897L192.331 44.0597ZM193.733 43.144L193.81 43.5499C193.454 43.8073 193.08 44.0005 192.687 44.1295C192.294 44.2585 191.902 44.3187 191.511 44.31C191.117 44.2979 190.744 44.2123 190.393 44.0532C190.038 43.8906 189.724 43.6482 189.448 43.3259C189.209 43.0451 189.033 42.762 188.921 42.4764C188.809 42.1909 188.771 41.9005 188.806 41.6055C188.842 41.3105 188.958 41.0144 189.153 40.7174C189.346 40.4169 189.633 40.1102 190.013 39.7973L193.727 36.7375L194.26 37.3614L190.54 40.4255C190.146 40.75 189.884 41.0572 189.754 41.3472C189.621 41.6401 189.591 41.9244 189.665 42.2002C189.738 42.476 189.891 42.7491 190.121 43.0194C190.376 43.3175 190.666 43.5241 190.992 43.6393C191.312 43.7539 191.642 43.8005 191.983 43.7792C192.318 43.7573 192.639 43.6876 192.946 43.5703C193.25 43.4559 193.512 43.3138 193.733 43.144Z" fill="#2E3759"/>
<path d="M181.981 35.3605L182.454 34.8857L185.127 37.4515L184.654 37.9264L181.981 35.3605ZM182.332 38.3314L181.746 37.7681L187.035 32.4523C187.276 32.21 187.425 31.9959 187.481 31.81C187.538 31.6242 187.534 31.4597 187.471 31.3167C187.407 31.1737 187.315 31.0439 187.193 30.9271C187.104 30.8419 187.014 30.7647 186.922 30.6955C186.827 30.6295 186.74 30.5714 186.662 30.5212L187.124 30.0081C187.219 30.0549 187.33 30.1271 187.458 30.2246C187.589 30.3189 187.712 30.4213 187.827 30.5318C188.054 30.7496 188.215 30.9825 188.309 31.2305C188.399 31.4817 188.394 31.7549 188.294 32.0498C188.19 32.348 187.964 32.6716 187.617 33.0205L182.332 38.3314Z" fill="#2E3759"/>
<path d="M176.821 30.8817L181.592 25.2292L182.222 25.7428L177.452 31.3953L176.821 30.8817ZM176.183 33.1211C176.083 33.2395 175.962 33.3085 175.821 33.3282C175.672 33.3485 175.531 33.304 175.397 33.1946C175.262 33.0853 175.192 32.9572 175.184 32.8103C175.171 32.664 175.214 32.5316 175.314 32.4132C175.411 32.2983 175.535 32.2321 175.687 32.2147C175.832 32.1979 175.972 32.2442 176.107 32.3535C176.241 32.4629 176.313 32.5893 176.323 32.7327C176.327 32.8767 176.28 33.0062 176.183 33.1211Z" fill="#2E3759"/>
<path d="M171.098 19.2219L168.926 22.3576C168.727 22.646 168.615 22.9357 168.591 23.2265C168.566 23.5173 168.633 23.7974 168.79 24.0668C168.947 24.3362 169.198 24.5861 169.543 24.8165C169.861 25.0292 170.184 25.163 170.512 25.2177C170.834 25.2736 171.131 25.2561 171.405 25.165C171.672 25.0751 171.884 24.9178 172.04 24.693L172.718 25.1544C172.559 25.3829 172.35 25.566 172.088 25.7036C171.826 25.8411 171.533 25.9246 171.208 25.9539C170.883 25.9832 170.542 25.9503 170.187 25.8553C169.825 25.7615 169.47 25.5981 169.121 25.3651C168.682 25.0714 168.346 24.74 168.114 24.3711C167.878 23.9996 167.766 23.6045 167.779 23.1857C167.792 22.7668 167.952 22.3364 168.258 21.8943L170.294 18.9554C170.439 18.7456 170.574 18.5182 170.7 18.2731C170.821 18.0256 170.902 17.8085 170.943 17.6219L170.99 17.5544L171.711 18.0368C171.664 18.2021 171.583 18.3947 171.469 18.6147C171.349 18.836 171.226 19.0384 171.098 19.2219ZM169.242 21.5657L169.589 21.0411L170.925 21.9337C171.273 22.1666 171.608 22.3437 171.928 22.4649C172.243 22.5872 172.536 22.6518 172.809 22.6585C173.079 22.669 173.322 22.626 173.538 22.5295C173.751 22.4305 173.93 22.2761 174.075 22.0663C174.226 21.8491 174.308 21.6138 174.323 21.3605C174.334 21.1047 174.275 20.8542 174.145 20.6088C174.01 20.3646 173.8 20.1476 173.516 19.9577C173.137 19.7044 172.755 19.5509 172.371 19.4971C171.983 19.4407 171.617 19.4616 171.272 19.5598C170.927 19.658 170.63 19.8185 170.381 20.0414L170.354 19.4562C170.533 19.3018 170.758 19.1696 171.028 19.0597C171.292 18.951 171.587 18.8801 171.915 18.8471C172.24 18.8177 172.583 18.8437 172.942 18.925C173.295 19.0075 173.65 19.1677 174.006 19.4058C174.408 19.6742 174.706 19.9833 174.902 20.3332C175.093 20.6806 175.183 21.0392 175.171 21.4091C175.152 21.7803 175.029 22.1307 174.8 22.4603C174.593 22.76 174.343 22.9848 174.05 23.1348C173.755 23.2884 173.43 23.3666 173.073 23.3694C172.71 23.3734 172.326 23.3033 171.922 23.159C171.511 23.016 171.089 22.8001 170.657 22.5114L169.242 21.5657Z" fill="#2E3759"/>
<path d="M159.367 22.9533L164.496 13.7912L165.212 14.1778L160.083 23.3399L159.367 22.9533Z" fill="#2E3759"/>
<path d="M152.879 10.38C152.798 10.5636 152.764 10.7646 152.778 10.9832C152.791 11.2017 152.897 11.4422 153.095 11.7045C153.289 11.9651 153.617 12.2553 154.079 12.5751C154.419 12.8188 154.716 13.0561 154.968 13.2868C155.215 13.5158 155.408 13.746 155.545 13.9775C155.682 14.209 155.758 14.4492 155.773 14.6981C155.788 14.947 155.734 15.2112 155.611 15.4907C155.501 15.7409 155.342 15.9535 155.136 16.1282C154.924 16.3054 154.678 16.4337 154.399 16.5133C154.114 16.5953 153.804 16.6219 153.468 16.5931C153.128 16.5626 152.773 16.469 152.404 16.3122C151.88 16.0896 151.47 15.8093 151.176 15.4714C150.875 15.136 150.694 14.7741 150.63 14.3859C150.563 13.9959 150.614 13.609 150.783 13.2253L151.532 13.5432C151.429 13.7768 151.401 14.0273 151.447 14.2946C151.49 14.5602 151.614 14.8158 151.819 15.0615C152.021 15.3054 152.31 15.5075 152.688 15.6678C153.078 15.8334 153.42 15.9095 153.715 15.896C154.01 15.8825 154.253 15.8102 154.445 15.6789C154.633 15.5458 154.769 15.3834 154.854 15.1915C154.92 15.0413 154.957 14.8939 154.966 14.7492C154.969 14.6068 154.931 14.4568 154.851 14.2991C154.767 14.1396 154.625 13.9632 154.426 13.7699C154.228 13.5766 153.957 13.3551 153.614 13.1055C153.117 12.7512 152.734 12.4125 152.463 12.0895C152.186 11.7688 152.019 11.4457 151.963 11.12C151.906 10.7985 151.956 10.4584 152.114 10.0996C152.237 9.82017 152.408 9.58858 152.629 9.40487C152.847 9.22532 153.104 9.09933 153.4 9.02688C153.691 8.95265 154.013 8.93556 154.363 8.9756C154.71 9.01385 155.074 9.11402 155.456 9.27611C156.031 9.52012 156.476 9.82059 156.792 10.1775C157.102 10.5368 157.291 10.9144 157.361 11.3104C157.425 11.7087 157.379 12.0831 157.225 12.4334L156.476 12.1155C156.606 11.7544 156.616 11.4299 156.509 11.1417C156.4 10.8578 156.221 10.6136 155.973 10.409C155.72 10.2027 155.453 10.0399 155.172 9.92055C154.786 9.75669 154.438 9.67585 154.129 9.67804C153.819 9.68024 153.557 9.7446 153.342 9.87113C153.127 9.99767 152.973 10.1673 152.879 10.38Z" fill="#2E3759"/>
<path d="M134.631 7.70781L134.796 7.02316L137.986 7.76186L137.821 8.44651L134.631 7.70781Z" fill="#2E3759"/>
</svg>
