<svg width="220" height="218" viewBox="0 0 220 218" fill="none" xmlns="http://www.w3.org/2000/svg">
<path d="M174.797 113.429L214.283 129.193L172.653 129.034L169.369 129.021L172.088 130.862L204.864 153.046L165.503 145.176L162.958 144.667L164.504 146.752L182.943 171.624L154.135 158.634L151.692 157.533L152.816 159.965L169.616 196.321L139.527 168.394L137.846 166.834V169.127V211.962L122.805 173.749L121.571 170.615L120.895 173.914L113.035 212.254L105.174 173.914L104.498 170.615L103.264 173.749L88.2225 211.962V169.127V166.448L86.4671 168.472L54.2104 205.659L73.2681 159.931L74.475 157.035L71.8149 158.698L37.7882 179.974L61.5753 146.738L63.0751 144.643L60.5544 145.178L23.5012 153.047L54.0087 130.842L56.4935 129.034H53.4203H5.97341L51.2266 113.445L53.6087 112.625L51.3123 111.589L16.6811 95.9586H53.4203H56.5456L54.0008 94.1443L17.2045 67.9117L60.4971 79.8077L63.6052 80.6618L61.5263 78.1985L24.5312 34.3629L71.7853 66.2827L74.5711 68.1645L73.2667 65.066L56.4488 25.1167L86.4995 56.564L88.2225 58.367V55.8731V24.3409L103.321 51.3724L104.697 53.8349L105.18 51.0559L113.035 5.84241L120.889 51.0559L121.372 53.8349L122.748 51.3724L137.846 24.3409V55.8731V58.367L139.569 56.564L169.62 25.1167L152.802 65.066L151.651 67.8018L154.223 66.3206L195.838 42.3582L164.554 78.1857L162.468 80.5745L165.547 79.8143L213.751 67.9121L172.116 94.1122L169.721 95.6195L172.531 95.9516L214.278 100.886L174.907 111.535L172.013 112.317L174.797 113.429Z" fill="#7A47FF" stroke="#2E3759" stroke-width="2"/>
<path d="M87.0306 85.9375H90.3821L94.1907 97.8086L97.9993 85.9375H101.351L95.5501 103H92.8314L87.0306 85.9375ZM84.9915 85.9375H88.4603L89.1048 99.0156V103H84.9915V85.9375ZM99.9212 85.9375H103.402V103H99.2767V99.0156L99.9212 85.9375ZM112.437 99.8125V94.5859C112.437 94.2266 112.386 93.918 112.284 93.6602C112.183 93.4023 112.023 93.2031 111.804 93.0625C111.585 92.9141 111.292 92.8398 110.925 92.8398C110.628 92.8398 110.374 92.8906 110.163 92.9922C109.952 93.0938 109.792 93.2461 109.683 93.4492C109.574 93.6523 109.519 93.9102 109.519 94.2227H105.57C105.57 93.6367 105.699 93.0938 105.956 92.5938C106.222 92.0859 106.597 91.6445 107.081 91.2695C107.574 90.8945 108.159 90.6055 108.839 90.4023C109.527 90.1914 110.292 90.0859 111.136 90.0859C112.144 90.0859 113.042 90.2539 113.831 90.5898C114.628 90.9258 115.257 91.4297 115.718 92.1016C116.179 92.7656 116.409 93.6016 116.409 94.6094V99.8008C116.409 100.629 116.456 101.258 116.55 101.688C116.644 102.109 116.777 102.48 116.949 102.801V103H112.988C112.8 102.609 112.659 102.133 112.566 101.57C112.48 101 112.437 100.414 112.437 99.8125ZM112.917 95.2539L112.941 97.3633H111.195C110.827 97.3633 110.515 97.4141 110.257 97.5156C110.007 97.6172 109.804 97.7578 109.648 97.9375C109.499 98.1094 109.39 98.3047 109.32 98.5234C109.257 98.7422 109.226 98.9727 109.226 99.2148C109.226 99.4492 109.281 99.6602 109.39 99.8477C109.507 100.027 109.663 100.168 109.859 100.27C110.054 100.371 110.273 100.422 110.515 100.422C110.952 100.422 111.324 100.34 111.628 100.176C111.941 100.004 112.179 99.7969 112.343 99.5547C112.507 99.3125 112.589 99.0859 112.589 98.875L113.456 100.492C113.3 100.805 113.12 101.121 112.917 101.441C112.722 101.762 112.476 102.059 112.179 102.332C111.89 102.598 111.534 102.816 111.113 102.988C110.691 103.152 110.179 103.234 109.577 103.234C108.796 103.234 108.077 103.074 107.421 102.754C106.773 102.434 106.253 101.988 105.863 101.418C105.472 100.84 105.277 100.176 105.277 99.4258C105.277 98.7695 105.394 98.1836 105.628 97.668C105.87 97.1523 106.234 96.7148 106.718 96.3555C107.202 95.9961 107.82 95.7227 108.57 95.5352C109.32 95.3477 110.202 95.2539 111.218 95.2539H112.917ZM122.773 90.3203V103H118.812V90.3203H122.773ZM118.577 87.0508C118.577 86.4883 118.781 86.0273 119.187 85.668C119.593 85.3086 120.12 85.1289 120.769 85.1289C121.417 85.1289 121.945 85.3086 122.351 85.668C122.757 86.0273 122.96 86.4883 122.96 87.0508C122.96 87.6133 122.757 88.0742 122.351 88.4336C121.945 88.793 121.417 88.9727 120.769 88.9727C120.12 88.9727 119.593 88.793 119.187 88.4336C118.781 88.0742 118.577 87.6133 118.577 87.0508ZM131.855 99.4375C131.855 99.2188 131.781 99.0312 131.632 98.875C131.492 98.7109 131.242 98.5625 130.882 98.4297C130.523 98.2891 130.019 98.1484 129.37 98.0078C128.753 97.875 128.171 97.6992 127.624 97.4805C127.085 97.2617 126.613 96.9961 126.206 96.6836C125.8 96.3711 125.48 96 125.245 95.5703C125.019 95.1406 124.906 94.6484 124.906 94.0938C124.906 93.5547 125.019 93.0469 125.245 92.5703C125.48 92.0859 125.82 91.6602 126.265 91.293C126.718 90.918 127.269 90.625 127.917 90.4141C128.566 90.1953 129.304 90.0859 130.132 90.0859C131.273 90.0859 132.257 90.2617 133.085 90.6133C133.913 90.957 134.55 91.4414 134.995 92.0664C135.449 92.6836 135.675 93.3984 135.675 94.2109H131.726C131.726 93.8906 131.671 93.6172 131.562 93.3906C131.46 93.1641 131.292 92.9922 131.058 92.875C130.824 92.75 130.511 92.6875 130.12 92.6875C129.847 92.6875 129.597 92.7383 129.37 92.8398C129.152 92.9414 128.976 93.082 128.843 93.2617C128.71 93.4414 128.644 93.6523 128.644 93.8945C128.644 94.0664 128.683 94.2227 128.761 94.3633C128.847 94.4961 128.976 94.6211 129.148 94.7383C129.32 94.8477 129.538 94.9492 129.804 95.043C130.07 95.1289 130.39 95.207 130.765 95.2773C131.617 95.4336 132.413 95.6562 133.156 95.9453C133.898 96.2344 134.499 96.6445 134.96 97.1758C135.429 97.707 135.663 98.4219 135.663 99.3203C135.663 99.8828 135.534 100.402 135.277 100.879C135.019 101.348 134.648 101.762 134.163 102.121C133.679 102.473 133.097 102.746 132.417 102.941C131.738 103.137 130.972 103.234 130.12 103.234C128.909 103.234 127.886 103.02 127.05 102.59C126.214 102.152 125.581 101.605 125.152 100.949C124.73 100.285 124.519 99.6133 124.519 98.9336H128.199C128.214 99.3242 128.308 99.6445 128.48 99.8945C128.659 100.145 128.898 100.328 129.195 100.445C129.492 100.562 129.835 100.621 130.226 100.621C130.585 100.621 130.882 100.57 131.117 100.469C131.359 100.367 131.542 100.23 131.667 100.059C131.792 99.8789 131.855 99.6719 131.855 99.4375ZM75.7337 128.293L78.2298 118.32H82.39L78.2415 131H75.7806L75.7337 128.293ZM74.2571 118.32L76.7181 128.293L76.6946 131H74.222L70.0853 118.32H74.2571ZM89.5384 131.234C88.5071 131.234 87.5853 131.074 86.7728 130.754C85.9603 130.426 85.2728 129.977 84.7103 129.406C84.1556 128.836 83.7298 128.18 83.4329 127.438C83.1439 126.695 82.9993 125.91 82.9993 125.082V124.637C82.9993 123.707 83.1282 122.848 83.386 122.059C83.6439 121.262 84.0267 120.566 84.5345 119.973C85.0423 119.379 85.679 118.918 86.4446 118.59C87.2103 118.254 88.1009 118.086 89.1165 118.086C90.015 118.086 90.8196 118.23 91.5306 118.52C92.2415 118.809 92.8431 119.223 93.3353 119.762C93.8353 120.301 94.2142 120.953 94.472 121.719C94.7376 122.484 94.8704 123.344 94.8704 124.297V125.902H84.511V123.43H91.015V123.125C91.0228 122.703 90.9485 122.344 90.7923 122.047C90.6439 121.75 90.4251 121.523 90.136 121.367C89.847 121.211 89.4954 121.133 89.0814 121.133C88.6517 121.133 88.2962 121.227 88.015 121.414C87.7415 121.602 87.5267 121.859 87.3704 122.188C87.222 122.508 87.1165 122.879 87.054 123.301C86.9915 123.723 86.9603 124.168 86.9603 124.637V125.082C86.9603 125.551 87.0228 125.977 87.1478 126.359C87.2806 126.742 87.4681 127.07 87.7103 127.344C87.9603 127.609 88.2571 127.816 88.6009 127.965C88.9525 128.113 89.3509 128.188 89.7962 128.188C90.3353 128.188 90.8665 128.086 91.39 127.883C91.9134 127.68 92.3626 127.344 92.7376 126.875L94.5306 129.008C94.2728 129.375 93.9056 129.73 93.429 130.074C92.9603 130.418 92.3978 130.699 91.7415 130.918C91.0853 131.129 90.3509 131.234 89.5384 131.234ZM100.355 121.027V131H96.4056V118.32H100.109L100.355 121.027ZM99.886 124.227L98.9603 124.25C98.9603 123.281 99.0775 122.418 99.3118 121.66C99.5462 120.895 99.8782 120.246 100.308 119.715C100.738 119.184 101.249 118.781 101.843 118.508C102.445 118.227 103.113 118.086 103.847 118.086C104.433 118.086 104.968 118.172 105.452 118.344C105.945 118.516 106.367 118.793 106.718 119.176C107.077 119.559 107.351 120.066 107.538 120.699C107.734 121.324 107.831 122.098 107.831 123.02V131H103.859V123.008C103.859 122.5 103.788 122.113 103.648 121.848C103.507 121.574 103.304 121.387 103.038 121.285C102.773 121.184 102.449 121.133 102.066 121.133C101.659 121.133 101.316 121.211 101.034 121.367C100.753 121.523 100.527 121.742 100.355 122.023C100.191 122.297 100.07 122.621 99.9915 122.996C99.9212 123.371 99.886 123.781 99.886 124.227ZM117.312 128.094V113H121.284V131H117.722L117.312 128.094ZM109.531 124.812V124.566C109.531 123.605 109.636 122.73 109.847 121.941C110.058 121.145 110.37 120.461 110.784 119.891C111.199 119.312 111.714 118.867 112.331 118.555C112.949 118.242 113.659 118.086 114.464 118.086C115.183 118.086 115.812 118.254 116.351 118.59C116.89 118.918 117.351 119.379 117.734 119.973C118.117 120.566 118.429 121.262 118.671 122.059C118.913 122.848 119.097 123.699 119.222 124.613V124.906C119.097 125.766 118.913 126.578 118.671 127.344C118.429 128.102 118.117 128.773 117.734 129.359C117.351 129.945 116.886 130.406 116.339 130.742C115.8 131.07 115.167 131.234 114.441 131.234C113.636 131.234 112.925 131.074 112.308 130.754C111.699 130.434 111.187 129.984 110.773 129.406C110.367 128.828 110.058 128.148 109.847 127.367C109.636 126.586 109.531 125.734 109.531 124.812ZM113.48 124.566V124.812C113.48 125.289 113.511 125.73 113.574 126.137C113.636 126.543 113.742 126.902 113.89 127.215C114.046 127.52 114.249 127.758 114.499 127.93C114.757 128.102 115.074 128.188 115.449 128.188C115.956 128.188 116.374 128.066 116.702 127.824C117.038 127.582 117.284 127.238 117.441 126.793C117.605 126.348 117.675 125.824 117.652 125.223V124.297C117.667 123.781 117.632 123.328 117.546 122.938C117.46 122.539 117.324 122.207 117.136 121.941C116.956 121.676 116.726 121.477 116.445 121.344C116.171 121.203 115.847 121.133 115.472 121.133C115.105 121.133 114.792 121.219 114.534 121.391C114.284 121.562 114.081 121.805 113.925 122.117C113.769 122.422 113.656 122.785 113.585 123.207C113.515 123.621 113.48 124.074 113.48 124.566ZM127.695 118.32V131H123.734V118.32H127.695ZM123.499 115.051C123.499 114.488 123.702 114.027 124.109 113.668C124.515 113.309 125.042 113.129 125.691 113.129C126.339 113.129 126.867 113.309 127.273 113.668C127.679 114.027 127.882 114.488 127.882 115.051C127.882 115.613 127.679 116.074 127.273 116.434C126.867 116.793 126.339 116.973 125.691 116.973C125.042 116.973 124.515 116.793 124.109 116.434C123.702 116.074 123.499 115.613 123.499 115.051ZM137.421 128.094V113H141.394V131H137.831L137.421 128.094ZM129.64 124.812V124.566C129.64 123.605 129.745 122.73 129.956 121.941C130.167 121.145 130.48 120.461 130.894 119.891C131.308 119.312 131.824 118.867 132.441 118.555C133.058 118.242 133.769 118.086 134.574 118.086C135.292 118.086 135.921 118.254 136.46 118.59C136.999 118.918 137.46 119.379 137.843 119.973C138.226 120.566 138.538 121.262 138.781 122.059C139.023 122.848 139.206 123.699 139.331 124.613V124.906C139.206 125.766 139.023 126.578 138.781 127.344C138.538 128.102 138.226 128.773 137.843 129.359C137.46 129.945 136.995 130.406 136.449 130.742C135.909 131.07 135.277 131.234 134.55 131.234C133.745 131.234 133.034 131.074 132.417 130.754C131.808 130.434 131.296 129.984 130.882 129.406C130.476 128.828 130.167 128.148 129.956 127.367C129.745 126.586 129.64 125.734 129.64 124.812ZM133.589 124.566V124.812C133.589 125.289 133.62 125.73 133.683 126.137C133.745 126.543 133.851 126.902 133.999 127.215C134.156 127.52 134.359 127.758 134.609 127.93C134.867 128.102 135.183 128.188 135.558 128.188C136.066 128.188 136.484 128.066 136.812 127.824C137.148 127.582 137.394 127.238 137.55 126.793C137.714 126.348 137.784 125.824 137.761 125.223V124.297C137.777 123.781 137.742 123.328 137.656 122.938C137.57 122.539 137.433 122.207 137.245 121.941C137.066 121.676 136.835 121.477 136.554 121.344C136.281 121.203 135.956 121.133 135.581 121.133C135.214 121.133 134.902 121.219 134.644 121.391C134.394 121.562 134.191 121.805 134.034 122.117C133.878 122.422 133.765 122.785 133.695 123.207C133.624 123.621 133.589 124.074 133.589 124.566ZM143.14 124.789V124.543C143.14 123.613 143.273 122.758 143.538 121.977C143.804 121.188 144.195 120.504 144.71 119.926C145.226 119.348 145.863 118.898 146.62 118.578C147.378 118.25 148.253 118.086 149.245 118.086C150.245 118.086 151.124 118.25 151.882 118.578C152.648 118.898 153.288 119.348 153.804 119.926C154.32 120.504 154.71 121.188 154.976 121.977C155.242 122.758 155.374 123.613 155.374 124.543V124.789C155.374 125.711 155.242 126.566 154.976 127.355C154.71 128.137 154.32 128.82 153.804 129.406C153.288 129.984 152.652 130.434 151.894 130.754C151.136 131.074 150.261 131.234 149.269 131.234C148.277 131.234 147.398 131.074 146.632 130.754C145.867 130.434 145.226 129.984 144.71 129.406C144.195 128.82 143.804 128.137 143.538 127.355C143.273 126.566 143.14 125.711 143.14 124.789ZM147.089 124.543V124.789C147.089 125.266 147.124 125.711 147.195 126.125C147.265 126.539 147.382 126.902 147.546 127.215C147.71 127.52 147.933 127.758 148.214 127.93C148.495 128.102 148.847 128.188 149.269 128.188C149.683 128.188 150.027 128.102 150.3 127.93C150.581 127.758 150.804 127.52 150.968 127.215C151.132 126.902 151.249 126.539 151.32 126.125C151.39 125.711 151.425 125.266 151.425 124.789V124.543C151.425 124.082 151.39 123.648 151.32 123.242C151.249 122.828 151.132 122.465 150.968 122.152C150.804 121.832 150.581 121.582 150.3 121.402C150.019 121.223 149.667 121.133 149.245 121.133C148.831 121.133 148.484 121.223 148.202 121.402C147.929 121.582 147.71 121.832 147.546 122.152C147.382 122.465 147.265 122.828 147.195 123.242C147.124 123.648 147.089 124.082 147.089 124.543Z" fill="#FCFDFF"/>
</svg>
